<svg width="55" height="55" viewBox="0 0 55 55" fill="none" xmlns="http://www.w3.org/2000/svg">
<path d="M8.58877 8.51401C8.11559 11.4361 13.1979 18.2181 18.1395 18.0647C17.9994 13.417 11.6496 8.39184 8.58877 8.51401Z" fill="#69AF24"/>
<path d="M17.1135 4.78589C14.7127 6.51752 13.5108 14.9068 17.1135 18.2926C20.3009 14.9071 19.3643 6.86385 17.1135 4.78589Z" fill="#69AF24"/>
<path d="M26.0474 8.72524C23.1253 8.25206 16.3433 13.3343 16.4967 18.276C21.1444 18.1358 26.1696 11.7861 26.0474 8.72524Z" fill="#69AF24"/>
<path d="M11.2533 24.4598C10.621 20.8833 13.372 17.6033 17.004 17.6033C20.6359 17.6033 23.3869 20.8833 22.7546 24.4598L18.4099 49.0348C18.2893 49.7169 17.6966 50.214 17.004 50.214C16.3113 50.214 15.7186 49.7169 15.598 49.0348L11.2533 24.4598Z" fill="#F78A0A"/>
<path d="M29.1076 8.51401C28.6344 11.4361 33.7167 18.2181 38.6583 18.0647C38.5182 13.417 32.1684 8.39184 29.1076 8.51401Z" fill="#69AF24"/>
<path d="M37.6323 4.78589C35.2315 6.51752 34.0296 14.9068 37.6323 18.2926C40.8197 14.9071 39.8831 6.86385 37.6323 4.78589Z" fill="#69AF24"/>
<path d="M46.5662 8.72524C43.6441 8.25206 36.8621 13.3343 37.0155 18.276C41.6632 18.1358 46.6884 11.7861 46.5662 8.72524Z" fill="#69AF24"/>
<path d="M31.7721 24.4598C31.1398 20.8833 33.8908 17.6033 37.5228 17.6033C41.1547 17.6033 43.9057 20.8833 43.2734 24.4598L38.9287 49.0348C38.8081 49.7169 38.2154 50.214 37.5228 50.214C36.8301 50.214 36.2374 49.7169 36.1168 49.0348L31.7721 24.4598Z" fill="#F78A0A"/>
</svg>
